<svg width="140" height="32" viewBox="0 0 140 32" fill="none" xmlns="http://www.w3.org/2000/svg">
<g clip-path="url(#clip0_1624_34380)">
<path d="M73.4966 25.0923C72.0598 25.092 70.638 24.7995 69.3178 24.2326C68.3757 23.8115 67.4808 23.2978 66.739 22.5676C65.9191 21.7881 65.2678 20.8486 64.8255 19.8073C64.4596 18.9627 64.2679 18.0529 64.2617 17.1325C64.283 16.6521 64.3321 16.1733 64.4089 15.6986C64.5046 14.9625 64.7695 14.2618 65.0404 13.5699C65.4054 12.6351 65.8558 11.7415 66.5491 11.0054C67.5868 9.90576 68.81 9.08137 70.276 8.65739C71.0857 8.39745 71.9282 8.25322 72.7783 8.229C73.9072 8.229 75.0362 8.25845 76.1343 8.54993C77.3991 8.86286 78.5841 9.43814 79.6124 10.2385C80.1987 10.7347 80.7063 11.3169 81.1182 11.9653C81.6082 12.6935 81.9743 13.4979 82.2015 14.3457C82.4852 15.3752 82.5809 16.4474 82.4841 17.5108C82.4208 18.2778 82.2483 19.0317 81.9719 19.7499C81.5799 20.779 80.9784 21.7155 80.2056 22.4999C79.2268 23.4744 78.0581 24.1192 76.7598 24.552C76.1175 24.7692 75.4522 24.9115 74.7771 24.976L73.4966 25.0923ZM73.4745 21.5047C76.1019 21.5842 78.5129 19.326 78.3627 16.3935C78.2494 14.2044 76.4198 11.6326 73.0903 11.8298C70.7073 11.9771 68.4641 13.9541 68.6363 17.0368C68.7217 18.2578 69.2701 19.4002 70.1692 20.2306C71.0684 21.061 72.2507 21.5167 73.4745 21.5047Z" fill="#F2F3FF"/>
<path d="M40.349 8.40576H40.6184C41.9195 8.40576 43.2192 8.40576 44.5204 8.40576C44.6794 8.40576 44.7324 8.44698 44.7324 8.61333C44.7324 11.8417 44.7324 15.0701 44.7236 18.3C44.7045 18.6847 44.6642 19.068 44.6029 19.4482C44.5631 19.7942 44.5322 20.1431 44.4719 20.4861C44.3668 21.1188 44.1404 21.7251 43.8051 22.2718C43.0956 23.4274 42.0491 24.1311 40.7876 24.5669C40.149 24.8011 39.4785 24.9371 38.7991 24.9702C37.8261 24.9997 36.8532 24.9702 35.8802 24.9894C35.3263 24.9966 34.7738 24.9328 34.2361 24.7994C33.038 24.5124 31.9428 24.0222 31.0656 23.1168C30.4255 22.4555 29.9878 21.625 29.8041 20.7231C29.6879 20.1814 29.6452 19.6234 29.5834 19.0714C29.4126 17.5242 29.5201 15.9725 29.5053 14.4238C29.4862 12.5101 29.5053 10.5963 29.5053 8.67222C29.5053 8.41018 29.5053 8.41018 29.7585 8.41018H33.6444C33.874 8.41018 33.874 8.41018 33.874 8.63836C33.874 11.7612 33.874 14.8841 33.874 18.007C33.8549 18.3508 33.8658 18.6956 33.9064 19.0375C34.0138 19.6411 34.136 20.2388 34.5864 20.7231C34.9294 21.0911 35.3768 21.2016 35.8111 21.3694C36.4145 21.6049 37.0489 21.5828 37.6701 21.5343C38.279 21.4901 38.8667 21.2915 39.3775 20.9572C39.7838 20.6892 40.0105 20.2697 40.1576 19.8001C40.308 19.2574 40.3735 18.6948 40.3519 18.1322V8.40576H40.349Z" fill="#F2F3FF"/>
<path d="M134.817 9.86582L135.879 8.37307C135.813 8.37307 135.785 8.37307 135.757 8.37307C134.222 8.37307 132.685 8.37307 131.15 8.37307C131.106 8.37612 131.064 8.388 131.025 8.40799C130.986 8.42798 130.951 8.45567 130.923 8.48937C129.792 10.0273 128.663 11.5686 127.538 13.1133C127.422 13.2723 127.401 13.2723 127.288 13.1133C126.162 11.5725 125.035 10.0307 123.905 8.4879C123.881 8.44922 123.846 8.41803 123.805 8.39777C123.764 8.37752 123.718 8.36897 123.673 8.37307C122.161 8.37307 120.649 8.37307 119.136 8.37307C119.092 8.37307 119.048 8.37307 118.989 8.38632C119.015 8.43196 119.03 8.46435 119.049 8.49084L120.667 10.7462C122.041 12.6835 123.421 14.6203 124.809 16.5567C124.846 16.5965 124.867 16.6492 124.867 16.7039C124.867 16.7586 124.846 16.8112 124.809 16.8511C124.554 17.1897 124.307 17.5327 124.058 17.8816L119.589 24.0042L118.955 24.8742C119.027 24.8816 119.065 24.8904 119.102 24.8904C120.721 24.8904 122.34 24.8904 123.96 24.8904C124.003 24.8858 124.045 24.8725 124.083 24.8512C124.122 24.83 124.155 24.8012 124.182 24.7668C124.526 24.2986 124.86 23.8216 125.199 23.3491C125.903 22.3642 126.609 21.3809 127.308 20.3931C127.402 20.262 127.455 20.2797 127.542 20.3931C128.576 21.8436 129.609 23.2932 130.642 24.7417C130.672 24.7902 130.714 24.8296 130.764 24.8556C130.815 24.8816 130.871 24.8931 130.928 24.8889C132.498 24.8889 134.068 24.8889 135.638 24.8889C135.704 24.8889 135.769 24.8889 135.862 24.8786C135.809 24.7991 135.778 24.7506 135.744 24.7035L134.419 22.881C132.958 20.8789 131.494 18.8772 130.028 16.8761C129.988 16.8351 129.965 16.7798 129.965 16.7223C129.965 16.6647 129.988 16.6095 130.028 16.5684L134.817 9.86582Z" fill="#F2F3FF"/>
<path d="M117.669 12.5172H111.278V14.9329H111.454C112.719 14.9329 113.985 14.9329 115.249 14.9329C115.411 14.9329 115.461 14.9756 115.459 15.139C115.454 16.1146 115.454 17.0911 115.459 18.0686C115.459 18.2438 115.401 18.2806 115.237 18.2791C113.977 18.2791 112.719 18.2791 111.459 18.2791H111.275V20.6036C111.325 20.6036 111.365 20.6036 111.403 20.6036C113.434 20.6036 115.465 20.6036 117.495 20.6036C117.623 20.6036 117.681 20.6213 117.681 20.7714C117.673 22.0772 117.681 23.383 117.681 24.6873C117.681 24.7329 117.672 24.7786 117.666 24.8345H106.849C106.719 24.8345 106.634 24.8345 106.634 24.6579C106.64 19.26 106.64 13.8622 106.634 8.46439C106.634 8.30687 106.679 8.26712 106.833 8.26859C110.365 8.26859 113.898 8.26859 117.43 8.26859C117.681 8.26859 117.679 8.26859 117.679 8.51297C117.679 9.77704 117.679 11.0416 117.679 12.3067C117.678 12.3758 117.672 12.4333 117.669 12.5172Z" fill="#F2F3FF"/>
<path d="M57.0533 8.179C56.4812 8.05189 55.8991 7.97505 55.3135 7.94935C53.3468 7.90985 51.4097 8.43339 49.7305 9.45828C48.5665 10.205 47.5927 11.2132 46.8868 12.4026C46.3239 13.3288 45.9637 14.3639 45.8299 15.4396C45.7887 15.787 45.8226 16.1432 45.7858 16.4921C45.7189 17.2425 45.7918 17.9987 46.0007 18.7224C46.3832 20.105 47.1288 21.36 48.16 22.3571C48.9224 23.1167 49.8321 23.6526 50.7947 24.0957C52.5297 24.8353 54.4307 25.0981 56.3012 24.8568C57.0198 24.7664 57.7277 24.6056 58.4149 24.3769C60.0826 23.788 61.5059 22.8694 62.5215 21.4017C62.7144 21.1264 62.8836 20.8349 63.0706 20.539C63.0029 20.5067 62.9734 20.4905 62.941 20.4787C62.6187 20.3565 62.2919 20.2431 61.971 20.1136C61.0948 19.7593 60.2209 19.3996 59.3495 19.0345C59.2024 18.9727 59.142 18.9992 59.0552 19.1287C58.3684 20.2047 57.2893 20.9706 56.047 21.2636C54.8047 21.5566 53.4972 21.3537 52.4021 20.698C50.599 19.6057 49.8262 17.6757 50.1132 15.759C50.2458 14.877 50.6302 14.0519 51.2201 13.383C51.8652 12.6412 52.7178 12.1098 53.6679 11.8574C54.6179 11.6049 55.6218 11.6431 56.55 11.9668C57.2418 12.2185 57.8835 12.5557 58.3795 13.1165C58.6945 13.4699 58.9757 13.8526 59.2951 14.2516C59.2686 14.2516 59.2804 14.2516 59.2951 14.2516C60.4299 13.7834 61.5648 13.3197 62.6967 12.8471C63.1383 12.6602 63.1383 12.6499 62.8792 12.2347C62.501 11.6109 62.0569 11.0295 61.5545 10.5006C61.1129 10.0516 60.5815 9.72768 60.0575 9.39204C60.0575 9.38762 58.4885 8.4852 57.0533 8.179Z" fill="#F2F3FF"/>
<path d="M105.369 24.8359H94.4434V8.29938C94.5125 8.29938 94.5802 8.28613 94.6479 8.28613C96.0021 8.28613 97.3548 8.28613 98.709 8.28613C98.8562 8.28613 98.9136 8.32441 98.893 8.47604C98.8865 8.57407 98.8865 8.67243 98.893 8.77047V20.6108H99.1108C101.129 20.6108 103.148 20.6108 105.166 20.6108C105.333 20.6108 105.384 20.6521 105.383 20.8258C105.383 22.1006 105.383 23.377 105.383 24.6533C105.377 24.7019 105.372 24.7593 105.369 24.8359Z" fill="#F2F3FF"/>
<path d="M88.0522 20.6065H88.2965C89.8686 20.6065 91.4391 20.6065 93.0067 20.6065C93.1671 20.6065 93.2142 20.6477 93.2142 20.8126C93.2142 22.0948 93.2142 23.3771 93.2142 24.6593C93.2142 24.7108 93.2142 24.7624 93.2054 24.8345C93.1318 24.8345 93.0582 24.8448 92.9964 24.8448C89.924 24.8448 86.8521 24.8448 83.7807 24.8448C83.6482 24.8448 83.5967 24.8168 83.5967 24.6711C83.5967 19.2664 83.5967 13.8627 83.5967 8.45993C83.5967 8.32302 83.6291 8.27444 83.7718 8.27591C85.1554 8.27591 86.5386 8.27591 87.9212 8.27591C87.9636 8.27849 88.0059 8.2834 88.0478 8.29063L88.0522 20.6065Z" fill="#F2F3FF"/>
<path d="M24.2873 20.0791V15.8379C24.2873 14.092 24.2962 12.3445 24.28 10.5986C24.28 10.129 24.1328 9.69617 23.6912 9.42088C23.544 9.33256 23.4086 9.23098 23.2688 9.12646L19.4977 6.50459C17.6431 5.20616 15.788 3.90921 13.9324 2.61373C13.585 2.3723 13.2656 2.07493 12.8108 2.0131C12.5249 1.96363 12.2308 2.02297 11.9865 2.17946C9.90519 3.6192 7.83567 5.09134 5.75732 6.53845C4.44142 7.45559 3.10786 8.35653 1.7949 9.26778C1.63474 9.374 1.48667 9.49741 1.35333 9.63582C1.07366 9.93466 1.02067 10.3145 1.0192 10.7002C1.0192 13.8181 1.0192 16.9352 1.0192 20.0512C1.0192 20.1101 1.0192 20.1689 1.0192 20.2278C0.97616 20.6845 1.00949 21.1453 1.11782 21.591C1.18433 21.8427 1.33562 22.0637 1.54615 22.2167C1.8788 22.4552 2.22912 22.673 2.56472 22.9086C4.42915 24.2158 6.298 25.5246 8.17127 26.8348C9.41063 27.7004 10.6559 28.5542 11.8923 29.4228C12.0853 29.5548 12.3057 29.6413 12.537 29.676C12.8181 29.7276 13.1083 29.6668 13.3451 29.5067C14.7066 28.5704 16.0564 27.6194 17.4105 26.6743L23.7707 22.2285C23.8407 22.1751 23.9049 22.1144 23.962 22.0474C24.2196 21.7662 24.277 21.4129 24.2932 21.0552C24.3094 20.7254 24.2873 20.4015 24.2873 20.0791ZM23.0612 21.5277C20.6826 23.1824 18.3069 24.84 15.9342 26.5006L12.8858 28.6308C12.8301 28.6789 12.7596 28.7066 12.686 28.7092C12.6124 28.7119 12.5401 28.6894 12.4811 28.6455C11.4757 27.9492 10.4689 27.2573 9.46656 26.558C8.42738 25.8337 7.39556 25.1006 6.35933 24.3748C5.23969 23.5907 4.12348 22.8104 3.01071 22.0341C2.75312 21.8545 2.48523 21.6852 2.22176 21.5115C2.14803 21.4649 2.08822 21.3993 2.04859 21.3216C2.00896 21.2439 1.99099 21.1569 1.99656 21.0699C1.99656 19.318 1.99656 17.5662 1.99656 15.8129C1.99656 14.0552 1.99656 12.2969 1.99656 10.5382C1.99584 10.4619 2.01568 10.3867 2.05401 10.3207C2.09234 10.2546 2.14774 10.2001 2.2144 10.1628C2.74282 9.80806 3.2786 9.4621 3.8026 9.09996C4.70195 8.47725 5.59099 7.84423 6.48297 7.21857C7.60065 6.43343 8.71882 5.65173 9.83748 4.87346C10.6892 4.27577 11.54 3.67711 12.3898 3.07746C12.5856 2.93908 12.6592 2.93024 12.8638 3.0701C13.688 3.64128 14.5123 4.21689 15.3366 4.79691C16.7614 5.79404 18.1843 6.79214 19.6052 7.79123C20.7474 8.58913 21.8911 9.38359 23.0362 10.1746C23.1204 10.2258 23.1889 10.2992 23.2344 10.3866C23.2798 10.4741 23.3003 10.5724 23.2938 10.6707C23.2879 13.5463 23.2879 16.4219 23.2938 19.2974C23.2938 19.8863 23.2938 20.484 23.3012 21.0787C23.3054 21.1683 23.2854 21.2573 23.2432 21.3363C23.2009 21.4154 23.138 21.4815 23.0612 21.5277Z" fill="#F2F3FF"/>
<path d="M12.4646 8.62442C14.0042 8.56112 15.7116 8.51695 17.2513 8.44629L19.0706 11.9514L14.7652 15.1092C14.0866 15.5832 13.4051 16.0513 12.7236 16.5224C12.7001 16.5386 12.6736 16.5489 12.6338 16.571L8.25488 8.80107L12.4646 8.62442Z" fill="#F2F3FF"/>
<path d="M18.3168 16.8597L21.2945 16.6875C21.324 16.692 21.353 16.6989 21.3813 16.7081C21.1429 17.1188 20.9133 17.5193 20.6822 17.9182C19.7519 19.5376 18.7304 21.3306 17.806 22.947L14.219 23.1988C13.9084 23.2179 13.5978 23.2326 13.2666 23.2518C13.2666 23.1737 13.2578 23.1222 13.2578 23.0707C13.2578 21.3365 13.2578 19.6018 13.2578 17.8667L14.6267 16.9731" fill="#F2F3FF"/>
<path d="M5.22478 12.9082L11.5982 17.3761L8.20248 23.169L7.86541 22.5448C6.56129 20.1305 5.17032 17.6396 3.86914 15.2239" fill="#F2F3FF"/>
<path d="M8.24747 7.5368C9.71939 6.50826 11.1859 5.47777 12.647 4.44531C13.9011 5.32859 15.1576 6.21187 16.4166 7.09515C16.7719 7.34444 17.1276 7.59225 17.4838 7.83858L7.25098 8.23459L8.24747 7.5368Z" fill="#F2F3FF"/>
<path d="M3.27148 15.3579C4.85992 18.18 6.37769 21.0404 7.89693 23.9081L5.9331 22.5346C5.10429 21.9545 4.11943 21.3171 3.28326 20.743" fill="#F2F3FF"/>
<path d="M11.4652 15.7851L5.87109 11.8L7.57583 8.8999L11.4652 15.7851Z" fill="#F2F3FF"/>
<path d="M15.0947 16.4265L19.8144 13.1201L21.2865 16.1262L15.1036 16.4648L15.0947 16.4265Z" fill="#F2F3FF"/>
<path d="M11.9795 23.3457C11.0506 23.3855 9.97597 23.437 9.04705 23.4841C8.94989 23.4841 8.85126 23.4841 8.71582 23.4841C9.81109 21.6145 10.8916 19.767 11.9737 17.9209L12.0222 17.9386V18.6746" fill="#F2F3FF"/>
<path d="M18.1875 23.3812L18.6542 23.05C19.7877 22.255 20.9203 21.4591 22.0518 20.6622C22.0607 19.4668 22.0518 18.2714 22.0607 17.0775L22.0518 16.8037L22.0018 16.8876" fill="#F2F3FF"/>
<path d="M17.9117 23.5708L13.2568 26.8331V26.6019C13.2568 25.7496 13.2568 24.75 13.2568 23.8976" fill="#F2F3FF"/>
<path d="M12.0237 23.8862C12.0237 24.7916 12.0237 25.8427 12.0237 26.801L8.21973 24.135L8.23003 24.0997" fill="#F2F3FF"/>
<path d="M20.2822 12.879C20.7931 13.9095 21.3863 15.074 21.8883 16.1177C21.931 16.2031 21.9723 16.29 22.0149 16.3754L22.0444 16.3651V11.5688" fill="#F2F3FF"/>
<path d="M17.7344 8.01514L21.3131 10.5237L19.7188 11.6395C19.0593 10.4383 18.4071 9.24731 17.7344 8.01514Z" fill="#F2F3FF"/>
<path d="M7.23131 8.24902L5.35286 11.4494L4.00586 10.5088L7.23131 8.24902Z" fill="#F2F3FF"/>
<path d="M3.25488 11.5288L4.71524 12.5593L3.25488 15.0619V11.5288Z" fill="#F2F3FF"/>
<path d="M137.607 8.66306H137.324V9.54634H137.074V8.66306H136.794V8.47168H137.607V8.66306Z" fill="#F2F3FF"/>
<path d="M138.183 8.47168L138.423 9.221L138.666 8.47168H138.994V9.54339H138.745V9.27694L138.769 8.78819L138.51 9.54487H138.342L138.087 8.79555L138.111 9.27841V9.54487H137.86V8.47168H138.183Z" fill="#F2F3FF"/>
</g>
<defs>
<clipPath id="clip0_1624_34380">
<rect width="138" height="28" fill="white" transform="translate(1 2)"/>
</clipPath>
</defs>
</svg>
