<svg width="449" height="158" fill="none" xmlns="http://www.w3.org/2000/svg"><g style="mix-blend-mode:difference" fill="#00FF19" fill-opacity=".08"><path d="M36.08 153.204h24.072L70.964 1.428H39.14L2.828 153.204h21.828l5.712-27.336h8.568l-2.856 27.336zm-1.02-49.572 11.832-57.528-5.712 57.528h-6.12zM61.456 153.204h39.372c13.056 0 18.36-7.548 20.808-22.848l6.732-42.228c1.836-11.424-4.692-16.116-8.772-17.748 3.876-1.02 10.608-4.896 12.24-15.708l5.508-33.456c2.04-13.26-4.692-19.788-15.504-19.788H85.732L61.456 153.204zm47.94-132.6c2.448 0 3.06.816 2.652 4.08l-5.712 35.496c-.408 2.652-1.632 3.672-3.468 3.672h-2.244l6.936-43.248h1.836zM99.808 82.62c2.448 0 3.264 1.02 2.856 4.488l-6.936 42.636c-.408 2.652-1.02 3.672-3.468 3.672h-2.652l8.16-50.796h2.04zM198.333 30.804C201.189 12.648 193.641 0 173.649 0h-3.876c-19.176 0-25.908 11.628-28.968 30.804l-14.892 92.616c-3.06 19.584 5.1 31.212 24.684 31.212h3.876c17.136 0 25.704-10.404 28.764-29.58l15.096-94.248zM156.921 127.5c-.408 2.652-1.224 3.876-3.264 3.876-1.836 0-2.856-1.02-2.448-3.672l16.116-100.776c.408-2.448 1.02-4.284 3.06-4.284 2.448 0 3.06 1.632 2.652 4.284L156.921 127.5zM243.378 128.316 263.574 1.428h-25.908l-19.788 125.256c-.408 2.448-1.224 3.876-3.264 3.876s-2.652-1.428-2.244-3.876L232.362 1.428h-25.704l-20.4 126.888c-2.244 13.872 4.488 26.52 24.684 26.52h3.876c18.156 0 26.112-11.628 28.56-26.52zM310.672 24.684l3.672-23.256h-47.532l-3.672 23.256h11.22l-20.4 128.52h24.888l20.4-128.52h11.424zM369.882 128.316 390.078 1.428h-25.909l-19.787 125.256c-.408 2.448-1.225 3.876-3.265 3.876s-2.651-1.428-2.243-3.876L358.866 1.428h-25.705l-20.399 126.888c-2.244 13.872 4.487 26.52 24.683 26.52h3.877c18.156 0 26.112-11.628 28.56-26.52zM429.628 129.132l4.692-29.58c1.836-12.036-1.428-18.36-11.016-30.804l-8.568-11.016c-2.652-3.468-3.264-5.508-2.652-9.18l4.08-25.5c.408-2.448 1.02-3.468 2.856-3.468 2.04 0 2.652 1.224 2.244 3.468l-5.1 31.824h23.868l5.508-34.272C447.376 8.976 440.644 0 423.304 0h-5.712c-17.544 0-24.684 8.568-26.928 22.644l-4.08 25.704c-1.632 10.608 1.02 18.768 9.384 29.376l8.364 10.812c3.264 4.08 4.284 6.12 3.468 11.22l-4.692 29.172c-.612 3.06-1.02 4.488-3.264 4.488-2.04 0-2.856-1.224-2.448-3.876l6.12-38.148h-24.48l-6.12 38.148c-2.448 15.3 5.508 25.092 23.052 25.092h5.916c17.544 0 25.092-9.18 27.744-25.5z"/></g><g style="mix-blend-mode:difference" fill="#FF0F00" fill-opacity=".08"><path d="M33.252 156.034h24.072L68.136 4.258H36.312L0 156.034h21.828l5.712-27.336h8.568l-2.856 27.336zm-1.02-49.572 11.832-57.528-5.712 57.528h-6.12zM58.628 156.034H98c13.056 0 18.36-7.548 20.808-22.848l6.732-42.228c1.836-11.424-4.692-16.116-8.772-17.748 3.876-1.02 10.608-4.896 12.24-15.708l5.508-33.456c2.04-13.26-4.692-19.788-15.504-19.788H82.904L58.628 156.034zm47.94-132.6c2.448 0 3.06.816 2.652 4.08l-5.712 35.496c-.408 2.652-1.632 3.672-3.468 3.672h-2.244l6.936-43.248h1.836zM96.98 85.45c2.448 0 3.264 1.02 2.856 4.488L92.9 132.574c-.408 2.652-1.02 3.672-3.468 3.672H86.78l8.16-50.796h2.04zM195.505 33.634c2.856-18.156-4.692-30.804-24.684-30.804h-3.876c-19.176 0-25.908 11.628-28.968 30.804l-14.892 92.616c-3.06 19.584 5.1 31.212 24.684 31.212h3.876c17.136 0 25.704-10.404 28.764-29.58l15.096-94.248zm-41.412 96.696c-.408 2.652-1.224 3.876-3.264 3.876-1.836 0-2.856-1.02-2.448-3.672l16.116-100.776c.408-2.448 1.02-4.284 3.06-4.284 2.448 0 3.06 1.632 2.652 4.284L154.093 130.33zM240.549 131.146 260.745 4.258h-25.908l-19.788 125.256c-.408 2.448-1.224 3.876-3.264 3.876s-2.652-1.428-2.244-3.876L229.533 4.258h-25.704l-20.4 126.888c-2.244 13.872 4.488 26.52 24.684 26.52h3.876c18.156 0 26.112-11.628 28.56-26.52zM307.844 27.514l3.672-23.256h-47.532l-3.672 23.256h11.22l-20.4 128.52h24.888l20.4-128.52h11.424zM367.053 131.146 387.249 4.258h-25.908l-19.788 125.256c-.408 2.448-1.224 3.876-3.264 3.876s-2.652-1.428-2.244-3.876L356.037 4.258h-25.704l-20.4 126.888c-2.244 13.872 4.488 26.52 24.684 26.52h3.876c18.156 0 26.112-11.628 28.56-26.52zM426.8 131.962l4.692-29.58c1.836-12.036-1.428-18.36-11.016-30.804l-8.568-11.016c-2.652-3.468-3.264-5.508-2.652-9.18l4.08-25.5c.408-2.448 1.02-3.468 2.856-3.468 2.04 0 2.652 1.224 2.244 3.468l-5.1 31.824h23.868l5.508-34.272c1.836-11.628-4.896-20.604-22.236-20.604h-5.712c-17.544 0-24.684 8.568-26.928 22.644l-4.08 25.704c-1.632 10.608 1.02 18.768 9.384 29.376l8.364 10.812c3.264 4.08 4.284 6.12 3.468 11.22l-4.692 29.172c-.612 3.06-1.02 4.488-3.264 4.488-2.04 0-2.856-1.224-2.448-3.876l6.12-38.148h-24.48l-6.12 38.148c-2.448 15.3 5.508 25.092 23.052 25.092h5.916c17.544 0 25.092-9.18 27.744-25.5z"/></g><g style="mix-blend-mode:difference" fill="#0038FF" fill-opacity=".08"><path d="M38.908 153.204H62.98L73.792 1.428H41.968L5.656 153.204h21.828l5.712-27.336h8.568l-2.856 27.336zm-1.02-49.572L49.72 46.104l-5.712 57.528h-6.12zM64.284 153.204h39.372c13.056 0 18.36-7.548 20.808-22.848l6.732-42.228c1.836-11.424-4.692-16.116-8.772-17.748 3.876-1.02 10.608-4.896 12.24-15.708l5.508-33.456c2.04-13.26-4.692-19.788-15.504-19.788H88.56L64.284 153.204zm47.94-132.6c2.448 0 3.06.816 2.652 4.08l-5.712 35.496c-.408 2.652-1.632 3.672-3.468 3.672h-2.244l6.936-43.248h1.836zm-9.588 62.016c2.448 0 3.264 1.02 2.856 4.488l-6.936 42.636c-.408 2.652-1.02 3.672-3.468 3.672h-2.652l8.16-50.796h2.04zM201.162 30.804C204.018 12.648 196.47 0 176.478 0h-3.876c-19.176 0-25.908 11.628-28.968 30.804l-14.892 92.616c-3.06 19.584 5.1 31.212 24.684 31.212h3.876c17.136 0 25.704-10.404 28.764-29.58l15.096-94.248zM159.75 127.5c-.408 2.652-1.224 3.876-3.264 3.876-1.836 0-2.856-1.02-2.448-3.672l16.116-100.776c.408-2.448 1.02-4.284 3.06-4.284 2.448 0 3.06 1.632 2.652 4.284L159.75 127.5zM246.206 128.316 266.402 1.428h-25.908l-19.788 125.256c-.408 2.448-1.224 3.876-3.264 3.876s-2.652-1.428-2.244-3.876L235.19 1.428h-25.704l-20.4 126.888c-2.244 13.872 4.488 26.52 24.684 26.52h3.876c18.156 0 26.112-11.628 28.56-26.52zM313.5 24.684l3.672-23.256H269.64l-3.672 23.256h11.22l-20.4 128.52h24.888l20.4-128.52H313.5zM372.71 128.316 392.906 1.428h-25.908L347.21 126.684c-.408 2.448-1.224 3.876-3.264 3.876s-2.652-1.428-2.244-3.876L361.694 1.428H335.99l-20.4 126.888c-2.244 13.872 4.488 26.52 24.684 26.52h3.876c18.156 0 26.112-11.628 28.56-26.52zM432.456 129.132l4.692-29.58c1.836-12.036-1.428-18.36-11.016-30.804l-8.568-11.016c-2.652-3.468-3.264-5.508-2.652-9.18l4.08-25.5c.408-2.448 1.02-3.468 2.856-3.468 2.04 0 2.652 1.224 2.244 3.468l-5.1 31.824h23.868l5.508-34.272C450.204 8.976 443.472 0 426.132 0h-5.712c-17.544 0-24.684 8.568-26.928 22.644l-4.08 25.704c-1.632 10.608 1.02 18.768 9.384 29.376l8.364 10.812c3.264 4.08 4.284 6.12 3.468 11.22l-4.692 29.172c-.612 3.06-1.02 4.488-3.264 4.488-2.04 0-2.856-1.224-2.448-3.876l6.12-38.148h-24.48l-6.12 38.148c-2.448 15.3 5.508 25.092 23.052 25.092h5.916c17.544 0 25.092-9.18 27.744-25.5z"/></g></svg>